<mxfile host="65bd71144e" modified="2021-03-09T13:50:42.640Z" agent="5.0 (X11; Linux x86_64) AppleWebKit/537.36 (KHTML, like Gecko) Code/1.50.1 Chrome/83.0.4103.122 Electron/9.2.1 Safari/537.36" version="14.2.4" etag="ak_R0Ft0MXusg2XHl8ix" type="embed">
    <diagram id="bacc3Am51Fc0bg4kG6PM" name="Page-1">
        <mxGraphModel dx="1052" dy="771" grid="1" gridSize="10" guides="1" tooltips="1" connect="1" arrows="1" fold="1" page="1" pageScale="1" pageWidth="850" pageHeight="1100" math="0" shadow="0">
            <root>
                <mxCell id="0"/>
                <mxCell id="1" parent="0"/>
                <mxCell id="3" value="get an&amp;nbsp;&lt;br&gt;ephemeral IP" style="edgeStyle=orthogonalEdgeStyle;rounded=0;orthogonalLoop=1;jettySize=auto;html=1;" edge="1" parent="1" source="2">
                    <mxGeometry relative="1" as="geometry">
                        <mxPoint x="260" y="215" as="targetPoint"/>
                    </mxGeometry>
                </mxCell>
                <mxCell id="2" value="Service&lt;br&gt;Type: LoadBalancer&lt;br&gt;" style="shape=note;whiteSpace=wrap;html=1;backgroundOutline=1;darkOpacity=0.05;align=left;" vertex="1" parent="1">
                    <mxGeometry x="40" y="160" width="140" height="110" as="geometry"/>
                </mxCell>
                <mxCell id="4" value="Service&lt;br&gt;Type: LoadBalancer&lt;br&gt;Spec:&lt;br&gt;&amp;nbsp; LoadBalancerIP: w.x.y.z&lt;br&gt;Status: w.x.y.z" style="shape=note;whiteSpace=wrap;html=1;backgroundOutline=1;darkOpacity=0.05;align=left;" vertex="1" parent="1">
                    <mxGeometry x="260" y="160" width="150" height="110" as="geometry"/>
                </mxCell>
                <mxCell id="6" value="&lt;h1&gt;Service without IP in Spec&lt;/h1&gt;" style="text;html=1;strokeColor=none;fillColor=none;spacing=5;spacingTop=-20;whiteSpace=wrap;overflow=hidden;rounded=0;align=left;" vertex="1" parent="1">
                    <mxGeometry x="40" y="120" width="320" height="120" as="geometry"/>
                </mxCell>
                <mxCell id="20" value="delete" style="edgeStyle=orthogonalEdgeStyle;rounded=0;orthogonalLoop=1;jettySize=auto;html=1;" edge="1" parent="1" source="8" target="19">
                    <mxGeometry relative="1" as="geometry"/>
                </mxCell>
                <mxCell id="8" value="&lt;h1&gt;&lt;span class=&quot;hljs-attr&quot; style=&quot;box-sizing: border-box ; margin: 0px ; padding: 0px ; vertical-align: baseline ; border: 0px solid ; font-size: 13px ; color: rgb(51 , 51 , 51) ; font-family: &amp;#34;menlo&amp;#34; , &amp;#34;monaco&amp;#34; , &amp;#34;consolas&amp;#34; , &amp;#34;liberation mono&amp;#34; , &amp;#34;courier new&amp;#34; , monospace&quot;&gt;ipaddress:&lt;/span&gt;&lt;span style=&quot;color: rgb(51 , 51 , 51) ; font-family: &amp;#34;menlo&amp;#34; , &amp;#34;monaco&amp;#34; , &amp;#34;consolas&amp;#34; , &amp;#34;liberation mono&amp;#34; , &amp;#34;courier new&amp;#34; , monospace ; font-size: 13px&quot;&gt; &lt;/span&gt;&lt;span class=&quot;hljs-number&quot; style=&quot;box-sizing: border-box ; margin: 0px ; padding: 0px ; vertical-align: baseline ; border: 0px solid ; font-size: 13px ; color: teal ; font-family: &amp;#34;menlo&amp;#34; , &amp;#34;monaco&amp;#34; , &amp;#34;consolas&amp;#34; , &amp;#34;liberation mono&amp;#34; , &amp;#34;courier new&amp;#34; , monospace&quot;&gt;w.x.y.z&lt;/span&gt;&lt;span style=&quot;color: rgb(51 , 51 , 51) ; font-family: &amp;#34;menlo&amp;#34; , &amp;#34;monaco&amp;#34; , &amp;#34;consolas&amp;#34; , &amp;#34;liberation mono&amp;#34; , &amp;#34;courier new&amp;#34; , monospace ; font-size: 13px&quot;&gt;&lt;br&gt;&lt;/span&gt;&lt;span class=&quot;hljs-attr&quot; style=&quot;box-sizing: border-box ; margin: 0px ; padding: 0px ; vertical-align: baseline ; border: 0px solid ; font-size: 13px ; color: rgb(51 , 51 , 51) ; font-family: &amp;#34;menlo&amp;#34; , &amp;#34;monaco&amp;#34; , &amp;#34;consolas&amp;#34; , &amp;#34;liberation mono&amp;#34; , &amp;#34;courier new&amp;#34; , monospace&quot;&gt;tags:&lt;br&gt;-&amp;nbsp;&lt;/span&gt;&lt;font color=&quot;#333333&quot; face=&quot;menlo, monaco, consolas, liberation mono, courier new, monospace&quot;&gt;&lt;span style=&quot;font-size: 13px&quot;&gt;cluster.metal-stack.io/id/namespace/service=&amp;lt;ClusterId&amp;gt;/default/my-service&lt;br&gt;&lt;/span&gt;&lt;/font&gt;&lt;font style=&quot;font-size: 13px&quot;&gt;type:&lt;/font&gt;&lt;span style=&quot;font-weight: normal ; color: rgb(51 , 51 , 51) ; font-family: &amp;#34;menlo&amp;#34; , &amp;#34;monaco&amp;#34; , &amp;#34;consolas&amp;#34; , &amp;#34;liberation mono&amp;#34; , &amp;#34;courier new&amp;#34; , monospace ; font-size: 13px&quot;&gt; &lt;/span&gt;&lt;span class=&quot;hljs-string&quot; style=&quot;font-weight: normal ; box-sizing: border-box ; margin: 0px ; padding: 0px ; vertical-align: baseline ; border: 0px solid ; font-size: 13px ; color: rgb(221 , 17 , 68) ; font-family: &amp;#34;menlo&amp;#34; , &amp;#34;monaco&amp;#34; , &amp;#34;consolas&amp;#34; , &amp;#34;liberation mono&amp;#34; , &amp;#34;courier new&amp;#34; , monospace&quot;&gt;ephemeral&lt;/span&gt;&lt;font color=&quot;#333333&quot; face=&quot;menlo, monaco, consolas, liberation mono, courier new, monospace&quot;&gt;&lt;span style=&quot;font-size: 13px&quot;&gt;&lt;br&gt;&lt;/span&gt;&lt;/font&gt;&lt;/h1&gt;" style="text;html=1;spacing=5;spacingTop=-20;whiteSpace=wrap;overflow=hidden;rounded=0;align=left;labelBackgroundColor=#ffffff;labelBorderColor=none;" vertex="1" parent="1">
                    <mxGeometry x="440" y="150" width="640" height="130" as="geometry"/>
                </mxCell>
                <mxCell id="9" value="use ip&amp;nbsp;&lt;br&gt;in cluster" style="edgeStyle=orthogonalEdgeStyle;rounded=0;orthogonalLoop=1;jettySize=auto;html=1;" edge="1" parent="1" source="10">
                    <mxGeometry relative="1" as="geometry">
                        <mxPoint x="260" y="415" as="targetPoint"/>
                    </mxGeometry>
                </mxCell>
                <mxCell id="10" value="Service&lt;br&gt;Type: LoadBalancer&lt;br&gt;Spec:&lt;br&gt;&amp;nbsp; LoadBalancerIP: w.x.y.z" style="shape=note;whiteSpace=wrap;html=1;backgroundOutline=1;darkOpacity=0.05;align=left;" vertex="1" parent="1">
                    <mxGeometry x="40" y="360" width="140" height="110" as="geometry"/>
                </mxCell>
                <mxCell id="11" value="Service&lt;br&gt;Type: LoadBalancer&lt;br&gt;Spec:&lt;br&gt;&amp;nbsp; LoadBalancerIP: w.x.y.z&lt;br&gt;Status: w.x.y.z" style="shape=note;whiteSpace=wrap;html=1;backgroundOutline=1;darkOpacity=0.05;align=left;" vertex="1" parent="1">
                    <mxGeometry x="260" y="360" width="150" height="110" as="geometry"/>
                </mxCell>
                <mxCell id="12" value="&lt;h1&gt;Service with ephemeral IP in Spec&lt;/h1&gt;" style="text;html=1;strokeColor=none;fillColor=none;spacing=5;spacingTop=-20;whiteSpace=wrap;overflow=hidden;rounded=0;align=left;" vertex="1" parent="1">
                    <mxGeometry x="40" y="315" width="420" height="50" as="geometry"/>
                </mxCell>
                <mxCell id="13" value="&lt;h1&gt;&lt;span class=&quot;hljs-attr&quot; style=&quot;box-sizing: border-box ; margin: 0px ; padding: 0px ; vertical-align: baseline ; border: 0px solid ; font-size: 13px ; color: rgb(51 , 51 , 51) ; font-family: &amp;#34;menlo&amp;#34; , &amp;#34;monaco&amp;#34; , &amp;#34;consolas&amp;#34; , &amp;#34;liberation mono&amp;#34; , &amp;#34;courier new&amp;#34; , monospace&quot;&gt;ipaddress:&lt;/span&gt;&lt;span style=&quot;color: rgb(51 , 51 , 51) ; font-family: &amp;#34;menlo&amp;#34; , &amp;#34;monaco&amp;#34; , &amp;#34;consolas&amp;#34; , &amp;#34;liberation mono&amp;#34; , &amp;#34;courier new&amp;#34; , monospace ; font-size: 13px&quot;&gt; &lt;/span&gt;&lt;span class=&quot;hljs-number&quot; style=&quot;box-sizing: border-box ; margin: 0px ; padding: 0px ; vertical-align: baseline ; border: 0px solid ; font-size: 13px ; color: teal ; font-family: &amp;#34;menlo&amp;#34; , &amp;#34;monaco&amp;#34; , &amp;#34;consolas&amp;#34; , &amp;#34;liberation mono&amp;#34; , &amp;#34;courier new&amp;#34; , monospace&quot;&gt;w.x.y.z&lt;/span&gt;&lt;span style=&quot;color: rgb(51 , 51 , 51) ; font-family: &amp;#34;menlo&amp;#34; , &amp;#34;monaco&amp;#34; , &amp;#34;consolas&amp;#34; , &amp;#34;liberation mono&amp;#34; , &amp;#34;courier new&amp;#34; , monospace ; font-size: 13px&quot;&gt;&lt;br&gt;&lt;/span&gt;&lt;span class=&quot;hljs-attr&quot; style=&quot;box-sizing: border-box ; margin: 0px ; padding: 0px ; vertical-align: baseline ; border: 0px solid ; font-size: 13px ; color: rgb(51 , 51 , 51) ; font-family: &amp;#34;menlo&amp;#34; , &amp;#34;monaco&amp;#34; , &amp;#34;consolas&amp;#34; , &amp;#34;liberation mono&amp;#34; , &amp;#34;courier new&amp;#34; , monospace&quot;&gt;tags:&lt;br&gt;-&amp;nbsp;&lt;/span&gt;&lt;font color=&quot;#333333&quot; face=&quot;menlo, monaco, consolas, liberation mono, courier new, monospace&quot;&gt;&lt;span style=&quot;font-size: 13px&quot;&gt;cluster.metal-stack.io/id/namespace/service=&amp;lt;ClusterId&amp;gt;/default/my-service&lt;br&gt;&lt;/span&gt;&lt;/font&gt;&lt;font style=&quot;font-size: 13px&quot;&gt;type:&lt;/font&gt;&lt;span style=&quot;font-weight: normal ; color: rgb(51 , 51 , 51) ; font-family: &amp;#34;menlo&amp;#34; , &amp;#34;monaco&amp;#34; , &amp;#34;consolas&amp;#34; , &amp;#34;liberation mono&amp;#34; , &amp;#34;courier new&amp;#34; , monospace ; font-size: 13px&quot;&gt; &lt;/span&gt;&lt;span class=&quot;hljs-string&quot; style=&quot;font-weight: normal ; box-sizing: border-box ; margin: 0px ; padding: 0px ; vertical-align: baseline ; border: 0px solid ; font-size: 13px ; color: rgb(221 , 17 , 68) ; font-family: &amp;#34;menlo&amp;#34; , &amp;#34;monaco&amp;#34; , &amp;#34;consolas&amp;#34; , &amp;#34;liberation mono&amp;#34; , &amp;#34;courier new&amp;#34; , monospace&quot;&gt;ephemeral&lt;/span&gt;&lt;font color=&quot;#333333&quot; face=&quot;menlo, monaco, consolas, liberation mono, courier new, monospace&quot;&gt;&lt;span style=&quot;font-size: 13px&quot;&gt;&lt;br&gt;&lt;/span&gt;&lt;/font&gt;&lt;/h1&gt;" style="text;html=1;spacing=5;spacingTop=-20;whiteSpace=wrap;overflow=hidden;rounded=0;align=left;labelBackgroundColor=#ffffff;" vertex="1" parent="1">
                    <mxGeometry x="440" y="350" width="640" height="130" as="geometry"/>
                </mxCell>
                <mxCell id="14" value="use ip&amp;nbsp;&lt;br&gt;in cluster" style="edgeStyle=orthogonalEdgeStyle;rounded=0;orthogonalLoop=1;jettySize=auto;html=1;" edge="1" parent="1" source="15">
                    <mxGeometry relative="1" as="geometry">
                        <mxPoint x="260" y="600" as="targetPoint"/>
                    </mxGeometry>
                </mxCell>
                <mxCell id="15" value="Service&lt;br&gt;Type: LoadBalancer&lt;br&gt;Spec:&lt;br&gt;&amp;nbsp; LoadBalancerIP: w.x.y.z" style="shape=note;whiteSpace=wrap;html=1;backgroundOutline=1;darkOpacity=0.05;align=left;" vertex="1" parent="1">
                    <mxGeometry x="40" y="545" width="140" height="110" as="geometry"/>
                </mxCell>
                <mxCell id="16" value="Service&lt;br&gt;Type: LoadBalancer&lt;br&gt;Spec:&lt;br&gt;&amp;nbsp; LoadBalancerIP: w.x.y.z&lt;br&gt;Status: w.x.y.z" style="shape=note;whiteSpace=wrap;html=1;backgroundOutline=1;darkOpacity=0.05;align=left;" vertex="1" parent="1">
                    <mxGeometry x="260" y="545" width="150" height="110" as="geometry"/>
                </mxCell>
                <mxCell id="17" value="&lt;h1&gt;Service with static IP in Spec&lt;/h1&gt;" style="text;html=1;strokeColor=none;fillColor=none;spacing=5;spacingTop=-20;whiteSpace=wrap;overflow=hidden;rounded=0;align=left;" vertex="1" parent="1">
                    <mxGeometry x="40" y="500" width="420" height="50" as="geometry"/>
                </mxCell>
                <mxCell id="18" value="&lt;h1&gt;&lt;span class=&quot;hljs-attr&quot; style=&quot;box-sizing: border-box ; margin: 0px ; padding: 0px ; vertical-align: baseline ; border: 0px solid ; font-size: 13px ; color: rgb(51 , 51 , 51) ; font-family: &amp;#34;menlo&amp;#34; , &amp;#34;monaco&amp;#34; , &amp;#34;consolas&amp;#34; , &amp;#34;liberation mono&amp;#34; , &amp;#34;courier new&amp;#34; , monospace&quot;&gt;ipaddress:&lt;/span&gt;&lt;span style=&quot;color: rgb(51 , 51 , 51) ; font-family: &amp;#34;menlo&amp;#34; , &amp;#34;monaco&amp;#34; , &amp;#34;consolas&amp;#34; , &amp;#34;liberation mono&amp;#34; , &amp;#34;courier new&amp;#34; , monospace ; font-size: 13px&quot;&gt;&amp;nbsp;&lt;/span&gt;&lt;span style=&quot;font-family: &amp;#34;menlo&amp;#34; , &amp;#34;monaco&amp;#34; , &amp;#34;consolas&amp;#34; , &amp;#34;liberation mono&amp;#34; , &amp;#34;courier new&amp;#34; , monospace ; font-size: 13px&quot;&gt;&lt;font color=&quot;#008080&quot;&gt;w.x.y.z&lt;/font&gt;&lt;/span&gt;&lt;span style=&quot;color: rgb(51 , 51 , 51) ; font-family: &amp;#34;menlo&amp;#34; , &amp;#34;monaco&amp;#34; , &amp;#34;consolas&amp;#34; , &amp;#34;liberation mono&amp;#34; , &amp;#34;courier new&amp;#34; , monospace ; font-size: 13px&quot;&gt;&lt;br&gt;&lt;/span&gt;&lt;span class=&quot;hljs-attr&quot; style=&quot;box-sizing: border-box ; margin: 0px ; padding: 0px ; vertical-align: baseline ; border: 0px solid ; font-size: 13px ; color: rgb(51 , 51 , 51) ; font-family: &amp;#34;menlo&amp;#34; , &amp;#34;monaco&amp;#34; , &amp;#34;consolas&amp;#34; , &amp;#34;liberation mono&amp;#34; , &amp;#34;courier new&amp;#34; , monospace&quot;&gt;tags:&lt;br&gt;-&amp;nbsp;&lt;/span&gt;&lt;font color=&quot;#333333&quot; face=&quot;menlo, monaco, consolas, liberation mono, courier new, monospace&quot;&gt;&lt;span style=&quot;font-size: 13px&quot;&gt;cluster.metal-stack.io/id/namespace/service=&amp;lt;ClusterId&amp;gt;/default/my-service&lt;br&gt;&lt;/span&gt;&lt;/font&gt;&lt;font style=&quot;font-size: 13px&quot;&gt;type:&lt;/font&gt;&lt;span style=&quot;font-weight: normal ; color: rgb(51 , 51 , 51) ; font-family: &amp;#34;menlo&amp;#34; , &amp;#34;monaco&amp;#34; , &amp;#34;consolas&amp;#34; , &amp;#34;liberation mono&amp;#34; , &amp;#34;courier new&amp;#34; , monospace ; font-size: 13px&quot;&gt; &lt;/span&gt;&lt;span class=&quot;hljs-string&quot; style=&quot;font-weight: normal ; box-sizing: border-box ; margin: 0px ; padding: 0px ; vertical-align: baseline ; border: 0px solid ; font-size: 13px ; color: rgb(221 , 17 , 68) ; font-family: &amp;#34;menlo&amp;#34; , &amp;#34;monaco&amp;#34; , &amp;#34;consolas&amp;#34; , &amp;#34;liberation mono&amp;#34; , &amp;#34;courier new&amp;#34; , monospace&quot;&gt;static&lt;/span&gt;&lt;font color=&quot;#333333&quot; face=&quot;menlo, monaco, consolas, liberation mono, courier new, monospace&quot;&gt;&lt;span style=&quot;font-size: 13px&quot;&gt;&lt;br&gt;&lt;/span&gt;&lt;/font&gt;&lt;/h1&gt;" style="text;html=1;spacing=5;spacingTop=-20;whiteSpace=wrap;overflow=hidden;rounded=0;align=left;labelBackgroundColor=#ffffff;" vertex="1" parent="1">
                    <mxGeometry x="440" y="535" width="640" height="130" as="geometry"/>
                </mxCell>
                <mxCell id="19" value="&lt;h1&gt;&lt;font color=&quot;#333333&quot; face=&quot;menlo, monaco, consolas, liberation mono, courier new, monospace&quot;&gt;&lt;span style=&quot;font-size: 13px&quot;&gt;nil&lt;br&gt;# ip gets removed because it was the last usage of an ephemeral IP in a cluster&amp;nbsp;&lt;br&gt;# if it is not the last one only the Tag will be removed&lt;/span&gt;&lt;/font&gt;&lt;/h1&gt;" style="text;html=1;spacing=5;spacingTop=-20;whiteSpace=wrap;overflow=hidden;rounded=0;align=left;labelBackgroundColor=#ffffff;" vertex="1" parent="1">
                    <mxGeometry x="1130" y="150" width="640" height="130" as="geometry"/>
                </mxCell>
                <mxCell id="21" value="delete" style="edgeStyle=orthogonalEdgeStyle;rounded=0;orthogonalLoop=1;jettySize=auto;html=1;" edge="1" parent="1" target="22">
                    <mxGeometry relative="1" as="geometry">
                        <mxPoint x="1080" y="425" as="sourcePoint"/>
                    </mxGeometry>
                </mxCell>
                <mxCell id="22" value="&lt;h1&gt;&lt;font color=&quot;#333333&quot; face=&quot;menlo, monaco, consolas, liberation mono, courier new, monospace&quot;&gt;&lt;span style=&quot;font-size: 13px&quot;&gt;nil&lt;br&gt;# ip gets removed because it was the last usage of an ephemeral IP in a cluster&amp;nbsp;&lt;br&gt;# if it is not the last one only the Tag will be removed&lt;/span&gt;&lt;/font&gt;&lt;/h1&gt;" style="text;html=1;spacing=5;spacingTop=-20;whiteSpace=wrap;overflow=hidden;rounded=0;align=left;labelBackgroundColor=#ffffff;" vertex="1" parent="1">
                    <mxGeometry x="1130" y="360" width="640" height="130" as="geometry"/>
                </mxCell>
                <mxCell id="23" value="delete" style="edgeStyle=orthogonalEdgeStyle;rounded=0;orthogonalLoop=1;jettySize=auto;html=1;" edge="1" parent="1" target="24">
                    <mxGeometry relative="1" as="geometry">
                        <mxPoint x="1080" y="600" as="sourcePoint"/>
                    </mxGeometry>
                </mxCell>
                <mxCell id="24" value="&lt;h1&gt;&lt;span class=&quot;hljs-attr&quot; style=&quot;box-sizing: border-box ; margin: 0px ; padding: 0px ; vertical-align: baseline ; border: 0px solid ; font-size: 13px ; color: rgb(51 , 51 , 51) ; font-family: &amp;#34;menlo&amp;#34; , &amp;#34;monaco&amp;#34; , &amp;#34;consolas&amp;#34; , &amp;#34;liberation mono&amp;#34; , &amp;#34;courier new&amp;#34; , monospace&quot;&gt;ipaddress:&lt;/span&gt;&lt;span style=&quot;color: rgb(51 , 51 , 51) ; font-family: &amp;#34;menlo&amp;#34; , &amp;#34;monaco&amp;#34; , &amp;#34;consolas&amp;#34; , &amp;#34;liberation mono&amp;#34; , &amp;#34;courier new&amp;#34; , monospace ; font-size: 13px&quot;&gt;&amp;nbsp;&lt;/span&gt;&lt;span class=&quot;hljs-number&quot; style=&quot;box-sizing: border-box ; margin: 0px ; padding: 0px ; vertical-align: baseline ; border: 0px solid ; font-size: 13px ; color: teal ; font-family: &amp;#34;menlo&amp;#34; , &amp;#34;monaco&amp;#34; , &amp;#34;consolas&amp;#34; , &amp;#34;liberation mono&amp;#34; , &amp;#34;courier new&amp;#34; , monospace&quot;&gt;w.x.y.z&lt;/span&gt;&lt;span style=&quot;color: rgb(51 , 51 , 51) ; font-family: &amp;#34;menlo&amp;#34; , &amp;#34;monaco&amp;#34; , &amp;#34;consolas&amp;#34; , &amp;#34;liberation mono&amp;#34; , &amp;#34;courier new&amp;#34; , monospace ; font-size: 13px&quot;&gt;&lt;br&gt;&lt;/span&gt;&lt;span class=&quot;hljs-attr&quot; style=&quot;box-sizing: border-box ; margin: 0px ; padding: 0px ; vertical-align: baseline ; border: 0px solid ; font-size: 13px ; color: rgb(51 , 51 , 51) ; font-family: &amp;#34;menlo&amp;#34; , &amp;#34;monaco&amp;#34; , &amp;#34;consolas&amp;#34; , &amp;#34;liberation mono&amp;#34; , &amp;#34;courier new&amp;#34; , monospace&quot;&gt;tags: []&lt;br&gt;&lt;/span&gt;&lt;font style=&quot;font-size: 13px&quot;&gt;type:&lt;/font&gt;&lt;span style=&quot;font-weight: normal ; color: rgb(51 , 51 , 51) ; font-family: &amp;#34;menlo&amp;#34; , &amp;#34;monaco&amp;#34; , &amp;#34;consolas&amp;#34; , &amp;#34;liberation mono&amp;#34; , &amp;#34;courier new&amp;#34; , monospace ; font-size: 13px&quot;&gt;&amp;nbsp;&lt;/span&gt;&lt;span class=&quot;hljs-string&quot; style=&quot;font-weight: normal ; box-sizing: border-box ; margin: 0px ; padding: 0px ; vertical-align: baseline ; border: 0px solid ; font-size: 13px ; font-family: &amp;#34;menlo&amp;#34; , &amp;#34;monaco&amp;#34; , &amp;#34;consolas&amp;#34; , &amp;#34;liberation mono&amp;#34; , &amp;#34;courier new&amp;#34; , monospace&quot;&gt;&lt;font color=&quot;#dd1144&quot;&gt;static&lt;/font&gt;&lt;br&gt;&lt;font color=&quot;#666666&quot;&gt;# only the tag is removed, static addresses will not be freed automatically&lt;/font&gt;&lt;/span&gt;&lt;/h1&gt;" style="text;html=1;spacing=5;spacingTop=-20;whiteSpace=wrap;overflow=hidden;rounded=0;align=left;labelBackgroundColor=#ffffff;" vertex="1" parent="1">
                    <mxGeometry x="1130" y="535" width="640" height="130" as="geometry"/>
                </mxCell>
                <mxCell id="25" value="use ip&amp;nbsp;&lt;br&gt;in cluster" style="edgeStyle=orthogonalEdgeStyle;rounded=0;orthogonalLoop=1;jettySize=auto;html=1;" edge="1" parent="1" source="26">
                    <mxGeometry relative="1" as="geometry">
                        <mxPoint x="260" y="790" as="targetPoint"/>
                    </mxGeometry>
                </mxCell>
                <mxCell id="26" value="Service&lt;br&gt;Type: LoadBalancer&lt;br&gt;Spec:&lt;br&gt;&amp;nbsp; LoadBalancerIP: w.x.y.z" style="shape=note;whiteSpace=wrap;html=1;backgroundOutline=1;darkOpacity=0.05;align=left;" vertex="1" parent="1">
                    <mxGeometry x="40" y="735" width="140" height="110" as="geometry"/>
                </mxCell>
                <mxCell id="27" value="Service&lt;br&gt;Type: LoadBalancer&lt;br&gt;Spec:&lt;br&gt;&amp;nbsp; LoadBalancerIP: w.x.y.z&lt;br&gt;Status: w.x.y.z" style="shape=note;whiteSpace=wrap;html=1;backgroundOutline=1;darkOpacity=0.05;align=left;" vertex="1" parent="1">
                    <mxGeometry x="260" y="735" width="150" height="110" as="geometry"/>
                </mxCell>
                <mxCell id="28" value="&lt;h1&gt;Multi-Cluster-Service with same static IP in Spec&lt;/h1&gt;" style="text;html=1;strokeColor=none;fillColor=none;spacing=5;spacingTop=-20;whiteSpace=wrap;overflow=hidden;rounded=0;align=left;" vertex="1" parent="1">
                    <mxGeometry x="40" y="690" width="590" height="50" as="geometry"/>
                </mxCell>
                <mxCell id="29" value="&lt;h1&gt;&lt;span class=&quot;hljs-attr&quot; style=&quot;box-sizing: border-box ; margin: 0px ; padding: 0px ; vertical-align: baseline ; border: 0px solid ; font-size: 13px ; color: rgb(51 , 51 , 51) ; font-family: &amp;#34;menlo&amp;#34; , &amp;#34;monaco&amp;#34; , &amp;#34;consolas&amp;#34; , &amp;#34;liberation mono&amp;#34; , &amp;#34;courier new&amp;#34; , monospace&quot;&gt;ipaddress:&lt;/span&gt;&lt;span style=&quot;color: rgb(51 , 51 , 51) ; font-family: &amp;#34;menlo&amp;#34; , &amp;#34;monaco&amp;#34; , &amp;#34;consolas&amp;#34; , &amp;#34;liberation mono&amp;#34; , &amp;#34;courier new&amp;#34; , monospace ; font-size: 13px&quot;&gt; &lt;/span&gt;&lt;span class=&quot;hljs-number&quot; style=&quot;box-sizing: border-box ; margin: 0px ; padding: 0px ; vertical-align: baseline ; border: 0px solid ; font-size: 13px ; color: teal ; font-family: &amp;#34;menlo&amp;#34; , &amp;#34;monaco&amp;#34; , &amp;#34;consolas&amp;#34; , &amp;#34;liberation mono&amp;#34; , &amp;#34;courier new&amp;#34; , monospace&quot;&gt;w.x.y.z&lt;/span&gt;&lt;span style=&quot;color: rgb(51 , 51 , 51) ; font-family: &amp;#34;menlo&amp;#34; , &amp;#34;monaco&amp;#34; , &amp;#34;consolas&amp;#34; , &amp;#34;liberation mono&amp;#34; , &amp;#34;courier new&amp;#34; , monospace ; font-size: 13px&quot;&gt;&lt;br&gt;&lt;/span&gt;&lt;span class=&quot;hljs-attr&quot; style=&quot;box-sizing: border-box ; margin: 0px ; padding: 0px ; vertical-align: baseline ; border: 0px solid ; font-size: 13px ; color: rgb(51 , 51 , 51) ; font-family: &amp;#34;menlo&amp;#34; , &amp;#34;monaco&amp;#34; , &amp;#34;consolas&amp;#34; , &amp;#34;liberation mono&amp;#34; , &amp;#34;courier new&amp;#34; , monospace&quot;&gt;tags:&lt;br&gt;-&amp;nbsp;&lt;/span&gt;&lt;font face=&quot;menlo, monaco, consolas, liberation mono, courier new, monospace&quot; color=&quot;#333333&quot;&gt;&lt;span style=&quot;font-size: 13px&quot;&gt;cluster.metal-stack.io/id/namespace/service=&amp;lt;ClusterId1&amp;gt;/default/my-service&lt;br&gt;-&amp;nbsp;&lt;/span&gt;&lt;/font&gt;&lt;font color=&quot;#333333&quot; face=&quot;menlo, monaco, consolas, liberation mono, courier new, monospace&quot; style=&quot;font-size: 12px&quot;&gt;&lt;span style=&quot;font-size: 13px&quot;&gt;cluster.metal-stack.io/id/namespace/service=&amp;lt;ClusterId2&amp;gt;/default/my-service&lt;br&gt;&lt;/span&gt;&lt;/font&gt;&lt;font style=&quot;font-size: 13px&quot;&gt;type:&lt;/font&gt;&lt;span style=&quot;font-weight: normal ; color: rgb(51 , 51 , 51) ; font-family: &amp;#34;menlo&amp;#34; , &amp;#34;monaco&amp;#34; , &amp;#34;consolas&amp;#34; , &amp;#34;liberation mono&amp;#34; , &amp;#34;courier new&amp;#34; , monospace ; font-size: 13px&quot;&gt; &lt;/span&gt;&lt;span class=&quot;hljs-string&quot; style=&quot;font-weight: normal ; box-sizing: border-box ; margin: 0px ; padding: 0px ; vertical-align: baseline ; border: 0px solid ; font-size: 13px ; color: rgb(221 , 17 , 68) ; font-family: &amp;#34;menlo&amp;#34; , &amp;#34;monaco&amp;#34; , &amp;#34;consolas&amp;#34; , &amp;#34;liberation mono&amp;#34; , &amp;#34;courier new&amp;#34; , monospace&quot;&gt;static&lt;/span&gt;&lt;font color=&quot;#333333&quot; face=&quot;menlo, monaco, consolas, liberation mono, courier new, monospace&quot; style=&quot;font-size: 12px&quot;&gt;&lt;span style=&quot;font-size: 13px&quot;&gt;&lt;br&gt;&lt;/span&gt;&lt;/font&gt;&lt;/h1&gt;" style="text;html=1;spacing=5;spacingTop=-20;whiteSpace=wrap;overflow=hidden;rounded=0;align=left;labelBackgroundColor=#ffffff;" vertex="1" parent="1">
                    <mxGeometry x="440" y="732" width="640" height="168" as="geometry"/>
                </mxCell>
                <mxCell id="30" value="delete&lt;br&gt;in&lt;br&gt;Cluster1" style="edgeStyle=orthogonalEdgeStyle;rounded=0;orthogonalLoop=1;jettySize=auto;html=1;labelBackgroundColor=none;" edge="1" parent="1">
                    <mxGeometry relative="1" as="geometry">
                        <mxPoint x="1080" y="790" as="sourcePoint"/>
                        <mxPoint x="1130" y="790" as="targetPoint"/>
                    </mxGeometry>
                </mxCell>
                <mxCell id="31" value="&lt;h1&gt;&lt;span class=&quot;hljs-attr&quot; style=&quot;box-sizing: border-box ; margin: 0px ; padding: 0px ; vertical-align: baseline ; border: 0px solid ; font-size: 13px ; color: rgb(51 , 51 , 51) ; font-family: &amp;#34;menlo&amp;#34; , &amp;#34;monaco&amp;#34; , &amp;#34;consolas&amp;#34; , &amp;#34;liberation mono&amp;#34; , &amp;#34;courier new&amp;#34; , monospace&quot;&gt;ipaddress:&lt;/span&gt;&lt;span style=&quot;color: rgb(51 , 51 , 51) ; font-family: &amp;#34;menlo&amp;#34; , &amp;#34;monaco&amp;#34; , &amp;#34;consolas&amp;#34; , &amp;#34;liberation mono&amp;#34; , &amp;#34;courier new&amp;#34; , monospace ; font-size: 13px&quot;&gt;&amp;nbsp;&lt;/span&gt;&lt;span style=&quot;font-family: &amp;#34;menlo&amp;#34; , &amp;#34;monaco&amp;#34; , &amp;#34;consolas&amp;#34; , &amp;#34;liberation mono&amp;#34; , &amp;#34;courier new&amp;#34; , monospace ; font-size: 13px&quot;&gt;&lt;font color=&quot;#008080&quot;&gt;w.x.y.z&lt;/font&gt;&lt;/span&gt;&lt;span style=&quot;color: rgb(51 , 51 , 51) ; font-family: &amp;#34;menlo&amp;#34; , &amp;#34;monaco&amp;#34; , &amp;#34;consolas&amp;#34; , &amp;#34;liberation mono&amp;#34; , &amp;#34;courier new&amp;#34; , monospace ; font-size: 13px&quot;&gt;&lt;br&gt;&lt;/span&gt;&lt;span class=&quot;hljs-attr&quot; style=&quot;box-sizing: border-box ; margin: 0px ; padding: 0px ; vertical-align: baseline ; border: 0px solid ; font-size: 13px ; color: rgb(51 , 51 , 51) ; font-family: &amp;#34;menlo&amp;#34; , &amp;#34;monaco&amp;#34; , &amp;#34;consolas&amp;#34; , &amp;#34;liberation mono&amp;#34; , &amp;#34;courier new&amp;#34; , monospace&quot;&gt;tags:&lt;br&gt;-&amp;nbsp;&lt;/span&gt;&lt;font color=&quot;#333333&quot; face=&quot;menlo, monaco, consolas, liberation mono, courier new, monospace&quot;&gt;&lt;span style=&quot;font-size: 13px&quot;&gt;cluster.metal-stack.io/id/namespace/service=&amp;lt;ClusterId1&amp;gt;/default/my-service&lt;br&gt;&lt;/span&gt;&lt;/font&gt;&lt;font style=&quot;font-size: 13px&quot;&gt;type:&lt;/font&gt;&lt;span style=&quot;font-weight: normal ; color: rgb(51 , 51 , 51) ; font-family: &amp;#34;menlo&amp;#34; , &amp;#34;monaco&amp;#34; , &amp;#34;consolas&amp;#34; , &amp;#34;liberation mono&amp;#34; , &amp;#34;courier new&amp;#34; , monospace ; font-size: 13px&quot;&gt; &lt;/span&gt;&lt;span class=&quot;hljs-string&quot; style=&quot;font-weight: normal ; box-sizing: border-box ; margin: 0px ; padding: 0px ; vertical-align: baseline ; border: 0px solid ; font-size: 13px ; color: rgb(221 , 17 , 68) ; font-family: &amp;#34;menlo&amp;#34; , &amp;#34;monaco&amp;#34; , &amp;#34;consolas&amp;#34; , &amp;#34;liberation mono&amp;#34; , &amp;#34;courier new&amp;#34; , monospace&quot;&gt;static&lt;/span&gt;&lt;font color=&quot;#333333&quot; face=&quot;menlo, monaco, consolas, liberation mono, courier new, monospace&quot;&gt;&lt;span style=&quot;font-size: 13px&quot;&gt;&lt;br&gt;&lt;/span&gt;&lt;/font&gt;&lt;/h1&gt;" style="text;html=1;spacing=5;spacingTop=-20;whiteSpace=wrap;overflow=hidden;rounded=0;align=left;labelBackgroundColor=#ffffff;" vertex="1" parent="1">
                    <mxGeometry x="1130" y="735" width="640" height="130" as="geometry"/>
                </mxCell>
                <mxCell id="32" value="use ip&amp;nbsp;&lt;br&gt;in cluster" style="edgeStyle=orthogonalEdgeStyle;rounded=0;orthogonalLoop=1;jettySize=auto;html=1;" edge="1" parent="1" source="33">
                    <mxGeometry relative="1" as="geometry">
                        <mxPoint x="260" y="980" as="targetPoint"/>
                    </mxGeometry>
                </mxCell>
                <mxCell id="33" value="Service&lt;br&gt;Type: LoadBalancer&lt;br&gt;Status: w.x.y.z" style="shape=note;whiteSpace=wrap;html=1;backgroundOutline=1;darkOpacity=0.05;align=left;" vertex="1" parent="1">
                    <mxGeometry x="40" y="925" width="140" height="110" as="geometry"/>
                </mxCell>
                <mxCell id="34" value="Service&lt;br&gt;Type: LoadBalancer&lt;br&gt;Status: w.x.y.z" style="shape=note;whiteSpace=wrap;html=1;backgroundOutline=1;darkOpacity=0.05;align=left;" vertex="1" parent="1">
                    <mxGeometry x="260" y="925" width="150" height="110" as="geometry"/>
                </mxCell>
                <mxCell id="35" value="&lt;h1&gt;User deletes LoadBalancerIP from Spec&lt;/h1&gt;" style="text;html=1;strokeColor=none;fillColor=none;spacing=5;spacingTop=-20;whiteSpace=wrap;overflow=hidden;rounded=0;align=left;" vertex="1" parent="1">
                    <mxGeometry x="40" y="880" width="590" height="50" as="geometry"/>
                </mxCell>
                <mxCell id="36" value="&lt;h1&gt;&lt;font color=&quot;#333333&quot; face=&quot;menlo, monaco, consolas, liberation mono, courier new, monospace&quot;&gt;&lt;span style=&quot;font-size: 13px&quot;&gt;# ip address is untouched&lt;/span&gt;&lt;/font&gt;&lt;/h1&gt;" style="text;html=1;strokeColor=none;fillColor=none;spacing=5;spacingTop=-20;whiteSpace=wrap;overflow=hidden;rounded=0;align=left;labelBackgroundColor=#ffffff;" vertex="1" parent="1">
                    <mxGeometry x="440" y="922" width="640" height="130" as="geometry"/>
                </mxCell>
                <mxCell id="39" value="use ip&amp;nbsp;&lt;br&gt;in cluster" style="edgeStyle=orthogonalEdgeStyle;rounded=0;orthogonalLoop=1;jettySize=auto;html=1;" edge="1" parent="1" source="40">
                    <mxGeometry relative="1" as="geometry">
                        <mxPoint x="260" y="1160" as="targetPoint"/>
                    </mxGeometry>
                </mxCell>
                <mxCell id="40" value="Service&lt;br&gt;Type: LoadBalancer&lt;br&gt;Spec:&lt;br&gt;&amp;nbsp; LoadBalancerIP: a.b.c.d" style="shape=note;whiteSpace=wrap;html=1;backgroundOutline=1;darkOpacity=0.05;align=left;" vertex="1" parent="1">
                    <mxGeometry x="40" y="1105" width="140" height="110" as="geometry"/>
                </mxCell>
                <mxCell id="41" value="Service&lt;br&gt;Type: LoadBalancer&lt;br&gt;Spec:&lt;br&gt;&amp;nbsp; LoadBalancerIP: a.b.c.d&lt;br&gt;Status: a.b.c.d" style="shape=note;whiteSpace=wrap;html=1;backgroundOutline=1;darkOpacity=0.05;align=left;" vertex="1" parent="1">
                    <mxGeometry x="260" y="1105" width="150" height="110" as="geometry"/>
                </mxCell>
                <mxCell id="42" value="&lt;h1&gt;User changes LoadBalancerIP to other IP in Spec&lt;/h1&gt;" style="text;html=1;strokeColor=none;fillColor=none;spacing=5;spacingTop=-20;whiteSpace=wrap;overflow=hidden;rounded=0;align=left;" vertex="1" parent="1">
                    <mxGeometry x="40" y="1060" width="590" height="50" as="geometry"/>
                </mxCell>
                <mxCell id="43" value="&lt;h1&gt;&lt;font color=&quot;#333333&quot; face=&quot;menlo, monaco, consolas, liberation mono, courier new, monospace&quot;&gt;&lt;span style=&quot;font-size: 13px&quot;&gt;# old ip address w.x.y.z is leaked: tag is not removed and ip is not part of the service object any longer&lt;br&gt;# new ip address is used&lt;/span&gt;&lt;/font&gt;&lt;/h1&gt;" style="text;html=1;strokeColor=none;fillColor=none;spacing=5;spacingTop=-20;whiteSpace=wrap;overflow=hidden;rounded=0;align=left;labelBackgroundColor=#ffffff;" vertex="1" parent="1">
                    <mxGeometry x="440" y="1105" width="640" height="130" as="geometry"/>
                </mxCell>
            </root>
        </mxGraphModel>
    </diagram>
</mxfile>